<svg viewBox="0 0 24 24" fill="currentColor">
  <path d="M21.5,4h-2.5v-1.5c0-1.378-1.121-2.5-2.5-2.5H2.5C1.122,0,0,1.122,0,2.5v15.855c-.041,1.276,1.522,2.113,2.562,1.371l3.438-2.292v3.566h11.349l4.089,2.726c1.04,.742,2.604-.095,2.562-1.371V6.5c0-1.378-1.121-2.5-2.5-2.5ZM2.007,18.894c-.408,.294-1.026-.037-1.007-.539V2.5c0-.827,.673-1.5,1.5-1.5h14c.827,0,1.5,.673,1.5,1.5v13.5H6.349l-4.341,2.894Zm20.993,3.461c.019,.504-.602,.831-1.008,.539l-4.341-2.894H7v-3h12V5h2.5c.827,0,1.5,.673,1.5,1.5v15.855ZM8.5,12h-3.5V5h3.5v1h-2.5v2h2.5v1h-2.5v2h2.5v1Zm2.5,0h-1V4.938h.792l2.708,4.78V5h1v7.062h-.792l-2.708-4.75v4.688Z"/>
</svg>
