<svg fill="currentColor" viewBox="0 0 24 24">
    <path d="M12 0C5.37 0 0 5.37 0 12c0 5.3 3.438 9.8 8.207 11.387.6.113.793-.263.793-.583 0-.287-.012-1.243-.018-2.25-3.338.725-4.042-1.61-4.042-1.61-.546-1.387-1.333-1.757-1.333-1.757-1.09-.745.083-.73.083-.73 1.205.087 1.84 1.237 1.84 1.237 1.07 1.835 2.807 1.305 3.492.997.108-.775.42-1.305.763-1.605-2.665-.303-5.467-1.332-5.467-5.93 0-1.31.468-2.38 1.235-3.22-.123-.303-.535-1.523.117-3.176 0 0 1.008-.323 3.3 1.23.957-.266 1.983-.398 3.003-.403 1.02.005 2.046.137 3.003.403 2.29-1.553 3.297-1.23 3.297-1.23.653 1.653.24 2.873.118 3.176.77.84 1.235 1.91 1.235 3.22 0 4.61-2.807 5.625-5.48 5.92.432.373.816 1.102.816 2.222 0 1.606-.015 2.898-.015 3.293 0 .323.192.7.798.58C20.565 21.795 24 17.297 24 12c0-6.63-5.37-12-12-12z"></path>
</svg>