<svg width="18" height="18" viewBox="0 0 18 18" fill="none" xmlns="http://www.w3.org/2000/svg">
<path d="M9.3 1.9C9.7 1.7 9.9 1.2 9.8 0.8C9.7 0.4 9.2 0 8.7 0C3.8 0.1 0 4.1 0 9C0 14 4 18 9 18C12.8 18 16.1 15.6 17.4 12.1C17.6 11.7 17.4 11.2 17 10.9C16.6 10.6 16.1 10.7 15.8 11C14.8 11.9 13.5 12.4 12.1 12.4C9 12.4 6.4 9.9 6.4 6.7C6.4 4.8 7.5 2.9 9.3 1.9ZM12.1 14.4C12.6 14.4 13.1 14.4 13.5 14.3C12.3 15.4 10.7 16 9 16C5.1 16 2 12.9 2 9C2 6.5 3.4 4.2 5.5 3C4.8 4.1 4.5 5.4 4.5 6.8C4.4 11 7.9 14.4 12.1 14.4Z" fill="currentColor"/>
</svg>
