<svg viewBox="0 0 24 24" fill="currentColor">
  <path d="M13.38,10.147c0-.542-.547-.834-1.448-1.253-.894-.415-2.006-.932-2.006-2.128,0-1.245,1.069-1.916,2.075-1.916,.925,0,2.008,.821,2.128,.914l-.613,.79c-.352-.272-1.074-.704-1.515-.704-.372,0-1.075,.191-1.075,.916,0,.521,.539,.809,1.427,1.221,.903,.419,2.027,.941,2.027,2.16,0,1.314-1.124,2.002-2.233,2.002-1.168,0-2.263-.943-2.384-1.051l.664-.748c.251,.222,1.051,.799,1.72,.799,.458,0,1.233-.211,1.233-1.002Zm10.62-3.647v15.855c.041,1.276-1.522,2.113-2.563,1.371l-4.089-2.726H6v-3.566l-3.438,2.292c-1.04,.742-2.604-.095-2.562-1.371V2.5C0,1.122,1.121,0,2.5,0h14c1.379,0,2.5,1.122,2.5,2.5v1.5h2.5c1.379,0,2.5,1.122,2.5,2.5ZM6.349,16h11.651V2.5c0-.827-.673-1.5-1.5-1.5H2.5c-.827,0-1.5,.673-1.5,1.5v15.855c-.018,.503,.6,.832,1.008,.539l4.341-2.894ZM23,6.5c0-.827-.673-1.5-1.5-1.5h-2.5v12H7v3h10.651l4.341,2.894c.406,.292,1.027-.036,1.008-.539V6.5Zm-14.5,4.5h-2.5v-2h2.5v-1h-2.5v-2h2.5v-1h-3.5v7h3.5v-1Z"/>
</svg>
